<?xml version="1.0" encoding="utf-8"?>
<!-- Generator: Adobe Illustrator 19.0.0, SVG Export Plug-In . SVG Version: 6.00 Build 0)  -->
<svg version="1.1" id="Layer_1" xmlns="http://www.w3.org/2000/svg" xmlns:xlink="http://www.w3.org/1999/xlink" x="0px" y="0px"
	 viewBox="0 0 388.8 253.4" style="enable-background:new 0 0 388.8 253.4;" xml:space="preserve">
<style type="text/css">
	.st0{fill:none;}
	.st1{fill:#FFFFFF;}
	.st2{fill:#DC2D2A;}
</style>
<g>
	<path class="st0" d="M388.5,0c0.1,0.1,0.4,0.1,0.4,0.2c0,0.5,0,1,0,1.6c0,83.9,0,167.8,0,251.6c-129.6,0-259.2,0-388.8,0
		C0,168.9,0,84.5,0,0c110.8,0,221.6,0,332.4,0c-0.3,0.9-0.4,1.7-0.8,2.6c-1.3,3.5-2.7,6.9-4.1,10.3c-1.7,4.3-3.3,8.6-4.9,12.9
		c-2.1,5.5-4.3,11-6.1,16.6c-1.8,5.5-4.6,10.3-7.9,14.9c-0.7,1-1.3,2.1-2.1,3.4C332,60.2,354.2,67,371.3,87c0.5-1.8,0.7-3.2,1.4-4.4
		c3.4-6.1,7-12.1,10.5-18.1c1.1-1.8,2.1-3.7,3.5-5.3c1.2-1.4,1.8-2.8,1.8-4.7C388.4,36.3,388.5,18.2,388.5,0z M324.9,99.8
		c-1.1-0.3-2.3-0.5-3.4-0.9c-6.9-2-13.9-2.7-20.9-1.4c-2.6,0.5-5.3,1.3-6.8,3.9c-2.1,3.7-4.1,7.4-6.2,11.1c-1,1.7-1.9,3.5-3,5.2
		c-3.2,5.2-6.5,10.4-9.7,15.6c-2.3,3.8-4.6,7.6-7,11.3c-3.5,5.2-7.1,10.4-10.7,15.5c-2,2.8-4.3,5.4-6.4,8.1
		c-1.2,1.6-3.1,3.3-3.2,5.1c-0.3,4,0.3,8,0.6,12c0.3,3.8,1.4,7.7,1.2,11.5c-0.3,5.9-1.5,11.8-2.3,17.6c-0.5,3.3-0.9,6.5-1.3,9.8
		c-0.1,0.5,0.3,1,0.5,1.5c0.4-0.3,0.9-0.6,1.2-1c1.5-2.6,3-5.2,4.4-7.9c2.3-4.5,4.5-9,6.7-13.5c1-2,2-4,3.1-6
		c2.2-4.2,4.6-8.4,6.8-12.7c1.6-3,3-6.1,4.5-9.2c1.2-2.3,2.5-4.4,3.7-6.7c0.4-0.8,1-2,0.7-2.7c-1.8-4.5-0.1-7.8,3.1-10.7
		c2-1.8,5.3-2.3,7.2-1.3c1.7,1,3.1,4,2.4,6.2c-1,3.2-2.7,5.9-6,7.3c-0.7,0.3-1.4,0.7-1.7,1.3c-1.4,2.4-2.8,4.8-4.1,7.3
		c-3.3,6.4-6.5,12.8-9.8,19.3c-1,2.1-2.1,4.1-3.2,6.2c-2.6,4.9-5.2,9.9-7.8,14.8c-1.3,2.4-2.7,4.8-3.9,7.2c-0.8,1.6-1.4,3.2-2.1,4.8
		c0.2,0.2,0.4,0.4,0.6,0.6c1.1-0.6,2.4-1,3.3-1.9c3.5-3.3,6.6-7,10.3-10.1c4.9-4.2,9.9-8.4,15.3-12c8.6-5.8,18-10.3,28.2-12.9
		c2.3-0.6,4.3-1.6,5.2-4.2c1.2-3.3,2.7-6.5,4-9.7c2.8-7,5.5-13.9,8.3-20.9c1.8-4.5,3.5-8.9,5.3-13.4c1.9-5,3.9-9.9,5.8-14.9
		c1.7-4.4,3.5-8.7,5.2-13.1c0.2-0.4,0.2-0.9,0.1-1.3c-1.2-3.9-3.5-7.1-6.8-9.5c1.3,0.9,2.7,1.6,3.8,2.7c3,3,4.8,6.5,3.6,11
		c-0.2,0.6-0.3,1.2-0.5,2c0.8-0.1,1.4-0.2,2-0.3c4.2-0.7,8.1-1.9,10.7-5.8c0.6-0.9,1.9-1.7,3-2c3.8-1,5.7-4,6.9-7.2
		c1.5-4.1,2.5-8.4,3.7-12.6c0.3-1.2,0.9-2.2,1.2-3.4c0.2-0.7,0.3-1.7-0.1-2.1c-2-2.2-4.2-4.3-6.3-6.4c-4.5-4.5-9.7-8-15.4-10.8
		c-13.2-6.6-27.3-8.9-41.9-8.4c-0.5,0-1.2,0.4-1.6,0.8c-3,3.7-5.9,7.6-8.9,11.3c-1.4,1.7-3,3.1-4.4,4.8c-1.4,1.8-3.3,3.5-2.8,6.2
		c0.2,1,0.1,2.2-0.3,3.1c-1.6,4.4-1.4,8.3,2.1,11.8c0.7,0.7,1.3,1.4,2.2,0.3c2-2.6,4.8-3.6,7.8-4.2c6.3-1.2,12.4-0.2,18.4,1.6
		C321.2,98.2,323,99.1,324.9,99.8z M71.2,198.6c4.2,4.5,7.8,8.5,11.5,12.4c5.1,5.5,10.6,10.6,16.9,14.8c4.5,3,9.4,5.3,14.7,6.8
		c8.8,2.4,16.8,0.3,24.1-4.7c3.9-2.7,7.4-6.2,10.9-9.5c5.7-5.3,12.3-6.7,19.7-4.7c5.1,1.4,9.4,4.4,13.9,7c4.2,2.4,8.4,4.7,12.9,6.5
		c7.2,2.8,14.8,4.2,22.5,4.4c3.6,0.1,7.2,0.5,10.8,0.2c4.7-0.4,9.3-1.2,13.9-1.9c1.7-0.3,3.4-0.9,5.3-1.4
		c-6.3,0.2-12.2,0.7-18.1,0.6c-10.7-0.2-20.7-3.3-30.2-8c-7.6-3.8-15.1-7.9-22.6-11.8c-9.6-4.9-18.9-3.9-27.8,1.6
		c-4.9,3-9.5,6.6-14.4,9.7c-2.8,1.8-5.8,3.5-9,4.4c-11.3,3.2-20.8-1-28.8-8.6c-4.1-3.9-7.5-8.8-10.8-13.4c-2.7-3.8-5.9-7.2-9.5-10
		c-2.2-1.8-4.9-2.2-7.7-1.4c-3.4,1.1-5.9,3.6-7.8,6.3c-2.5,3.3-4.1,7.2-6.2,10.8c-1.9,3.4-3.8,6.8-6,10c-1,1.4-2.7,2.4-4.3,3.7
		c-1-1.8-2.1-3.2-2.6-4.8c-1.6-4.5-3-9-2.7-13.8c0.1-2.2,0.5-4.4,0.8-6.6c0.3-2.4,0.5-4.7,1-7c0.8-3.9,1.8-7.8,2.6-11.7
		c0.2-1,0-2.1,0-3.5c-0.8,0.1-2.2,0-3,0.6c-1.8,1.4-3.4,3.2-4.8,5c-1.9,2.4-2.7,5.3-3.2,8.4c-0.6,4-1.7,7.9-2.2,11.8
		c-0.4,3.9,0,7.8,1.4,11.5c1.5,4.1,2.5,8.3,4.2,12.3c1.9,4.5,2.8,6.2,9.2,4.6c1.1-0.3,2.2-0.8,3.2-1.3c5.2-2.6,9.6-6.1,12.3-11.2
		c2-3.7,3.6-7.7,5.6-11.4C68,202.8,69.6,200.8,71.2,198.6z"/>
	<path class="st1" d="M388.5,0c0,18.2,0,36.3,0,54.5c0,1.9-0.6,3.3-1.8,4.7c-1.4,1.6-2.4,3.5-3.5,5.3c-3.6,6-7.1,12-10.5,18.1
		c-0.7,1.2-0.9,2.7-1.4,4.4c-17.1-20-39.2-26.8-64.7-26.2c0.8-1.3,1.3-2.4,2.1-3.4c3.3-4.6,6.1-9.4,7.9-14.9
		c1.8-5.6,4-11.1,6.1-16.6c1.6-4.3,3.3-8.6,4.9-12.9c1.3-3.5,2.7-6.9,4.1-10.3c0.3-0.8,0.5-1.7,0.8-2.6C351.1,0,369.8,0,388.5,0z"/>
	<path class="st1" d="M336,105.4c3.3,2.4,5.6,5.6,6.8,9.5c0.1,0.4,0.1,0.9-0.1,1.3c-1.7,4.4-3.5,8.7-5.2,13.1c-2,5-3.9,9.9-5.8,14.9
		c-1.8,4.5-3.5,8.9-5.3,13.4c-2.8,7-5.5,13.9-8.3,20.9c-1.3,3.3-2.8,6.4-4,9.7c-0.9,2.6-2.9,3.6-5.2,4.2c-10.2,2.6-19.6,7-28.2,12.9
		c-5.4,3.6-10.4,7.8-15.3,12c-3.6,3.1-6.8,6.8-10.3,10.1c-0.9,0.8-2.2,1.3-3.3,1.9c-0.2-0.2-0.4-0.4-0.6-0.6
		c0.7-1.6,1.3-3.3,2.1-4.8c1.3-2.4,2.7-4.8,3.9-7.2c2.6-4.9,5.2-9.9,7.8-14.8c1.1-2,2.1-4.1,3.2-6.2c3.3-6.4,6.5-12.9,9.8-19.3
		c1.3-2.5,2.7-4.9,4.1-7.3c0.4-0.6,1.1-1.1,1.7-1.3c3.3-1.4,5.1-4.1,6-7.3c0.7-2.3-0.7-5.3-2.4-6.2c-1.9-1.1-5.3-0.5-7.2,1.3
		c-3.2,2.9-4.9,6.2-3.1,10.7c0.3,0.7-0.3,1.8-0.7,2.7c-1.2,2.3-2.5,4.4-3.7,6.7c-1.6,3-2.9,6.1-4.5,9.2c-2.2,4.2-4.5,8.4-6.8,12.7
		c-1.1,2-2,4-3.1,6c-2.2,4.5-4.4,9-6.7,13.5c-1.4,2.7-2.9,5.3-4.4,7.9c-0.2,0.4-0.8,0.7-1.2,1c-0.2-0.5-0.6-1-0.5-1.5
		c0.4-3.3,0.9-6.5,1.3-9.8c0.8-5.9,2-11.7,2.3-17.6c0.2-3.8-0.8-7.6-1.2-11.5c-0.4-4-0.9-8-0.6-12c0.1-1.8,2-3.4,3.2-5.1
		c2.1-2.7,4.4-5.3,6.4-8.1c3.7-5.1,7.3-10.2,10.7-15.5c2.5-3.7,4.7-7.5,7-11.3c3.2-5.2,6.5-10.4,9.7-15.6c1-1.7,2-3.4,3-5.2
		c2.1-3.7,4.1-7.4,6.2-11.1c1.5-2.6,4.2-3.5,6.8-3.9c7.1-1.3,14.1-0.6,20.9,1.4c1.1,0.3,2.2,0.6,3.4,0.9
		C328.9,101.1,332.7,102.6,336,105.4z"/>
	<path class="st1" d="M336,105.4c-3.2-2.8-7.1-4.3-11-5.6c-1.9-0.7-3.8-1.6-5.7-2.2c-6-1.8-12.1-2.8-18.4-1.6
		c-3,0.6-5.9,1.6-7.8,4.2c-0.9,1.1-1.5,0.4-2.2-0.3c-3.5-3.4-3.7-7.4-2.1-11.8c0.3-0.9,0.5-2.1,0.3-3.1c-0.5-2.8,1.4-4.4,2.8-6.2
		c1.3-1.7,3-3.1,4.4-4.8c3-3.7,5.9-7.6,8.9-11.3c0.3-0.4,1-0.8,1.6-0.8c14.6-0.5,28.8,1.8,41.9,8.4c5.6,2.8,10.9,6.3,15.4,10.8
		c2.1,2.1,4.3,4.2,6.3,6.4c0.4,0.4,0.2,1.5,0.1,2.1c-0.3,1.2-0.9,2.2-1.2,3.4c-1.2,4.2-2.2,8.5-3.7,12.6c-1.2,3.2-3.1,6.2-6.9,7.2
		c-1.1,0.3-2.4,1-3,2c-2.6,3.9-6.4,5.1-10.7,5.8c-0.6,0.1-1.2,0.2-2,0.3c0.2-0.8,0.4-1.4,0.5-2c1.2-4.5-0.6-7.9-3.6-11
		C338.7,106.9,337.3,106.2,336,105.4z"/>
	<path class="st2" d="M71.2,198.6c-1.5,2.2-3.2,4.3-4.4,6.5c-2,3.7-3.6,7.6-5.6,11.4c-2.7,5.2-7.1,8.7-12.3,11.2
		c-1,0.5-2.1,1-3.2,1.3c-6.4,1.6-7.3-0.1-9.2-4.6c-1.7-4-2.7-8.3-4.2-12.3c-1.4-3.8-1.9-7.6-1.4-11.5c0.4-4,1.6-7.9,2.2-11.8
		c0.5-3.1,1.2-6,3.2-8.4c1.5-1.8,3-3.6,4.8-5c0.8-0.7,2.3-0.5,3-0.6c0,1.3,0.2,2.4,0,3.5c-0.8,3.9-1.8,7.8-2.6,11.7
		c-0.5,2.3-0.7,4.7-1,7c-0.3,2.2-0.6,4.4-0.8,6.6c-0.3,4.8,1.1,9.4,2.7,13.8c0.6,1.6,1.6,3,2.6,4.8c1.5-1.3,3.3-2.2,4.3-3.7
		c2.2-3.2,4.1-6.6,6-10c2.1-3.6,3.7-7.5,6.2-10.8c2-2.6,4.4-5.2,7.8-6.3c2.8-0.9,5.4-0.4,7.7,1.4c3.6,2.9,6.8,6.2,9.5,10
		c3.4,4.7,6.7,9.5,10.8,13.4c8,7.6,17.5,11.8,28.8,8.6c3.2-0.9,6.2-2.6,9-4.4c4.9-3.1,9.5-6.7,14.4-9.7c8.9-5.5,18.2-6.5,27.8-1.6
		c7.6,3.9,15,8,22.6,11.8c9.5,4.7,19.5,7.9,30.2,8c5.9,0.1,11.8-0.4,18.1-0.6c-1.9,0.5-3.6,1.2-5.3,1.4c-4.6,0.7-9.3,1.6-13.9,1.9
		c-3.6,0.3-7.2-0.1-10.8-0.2c-7.8-0.2-15.3-1.6-22.5-4.4c-4.5-1.7-8.7-4.1-12.9-6.5c-4.5-2.6-8.8-5.6-13.9-7c-7.4-2-14-0.6-19.7,4.7
		c-3.5,3.3-6.9,6.8-10.9,9.5c-7.3,5-15.3,7-24.1,4.7c-5.3-1.4-10.1-3.7-14.7-6.8c-6.3-4.2-11.8-9.3-16.9-14.8
		C79,207,75.4,203.1,71.2,198.6z"/>
</g>
</svg>
