<?xml version="1.0" encoding="utf-8"?>
<!-- Generator: Adobe Illustrator 19.0.0, SVG Export Plug-In . SVG Version: 6.00 Build 0)  -->
<svg version="1.1" id="Template" xmlns="http://www.w3.org/2000/svg" xmlns:xlink="http://www.w3.org/1999/xlink" x="0px" y="0px"
	 viewBox="0 0 1054.9 192.6" style="enable-background:new 0 0 1054.9 192.6;" xml:space="preserve">
<style type="text/css">
	.st0{fill:#FFFFFF;}
</style>
<g>
	<path class="st0" d="M13.4,177.4c0-47.4,0.5-91.1-0.2-134.7C12.8,20,32.1,2.5,55.9,8.7c8.1,2.1,17.9,11.5,20,19.3
		c7.2,26.9,11.3,54.4,16.6,81.7c0.2,1.1,1.3,2,1.9,3c0.4-1.1,1-2.1,1.1-3.2c3-28.4,5.7-56.8,9.1-85.1c0.4-3.4,4.9-8.7,7.8-9
		c8.9-0.7,20.2-2.5,26.6,1.6c31.4,20.4,13.6,51.6,16.3,78c2.6,25,0.9,50.5-0.3,75.7c-0.2,4.4-7.6,8.4-11.7,12.7
		c-1.8-3.3-4.9-6.5-5.2-10c-3.2-30.7-5.8-61.4-8.9-92.2c-0.4-3.7-1.6-7.5-3.4-10.8c-1.2-2.2-4.1-3.6-6.2-5.3c-1.1,2.1-3,4.2-3.3,6.4
		c-3.5,29-7.3,57.9-10.1,87c-1.4,15-23.4,29.5-38.3,23.2c-3.7-1.5-6-8-7-12.5c-5.6-24.4-10.6-48.9-16.1-73.4
		c-0.7-2.9-3.2-5.5-4.9-8.2c-1.2,3-3.2,5.9-3.3,8.9c-1.4,25.8-1.9,51.7-4.3,77.4c-0.4,3.9-8.9,7.1-13.6,10.6
		C16.5,181.4,14.1,178.3,13.4,177.4z"/>
</g>
<path class="st0" d="M623,167c0-47.6-0.9-95.3,1.2-142.8c0.3-5.8,16-14.3,25.4-15.5c7.6-1,21.3,5.3,24,11.6
	c13.2,29.7,23.6,60.6,35,91c0.3,0.8,1.1,1.3,1.7,2c0.8-2,2.2-3.9,2.3-5.9c1.6-27.6,2.2-55.2,5.1-82.7c0.5-4.9,10.7-8.8,16.4-13.2
	c1.4,3.9,4,7.8,4,11.7c0.1,46.9,0.8,93.9-1.3,140.8c-0.3,6.6-13.9,14.5-23,18.4c-23.7,10-21.9-10.7-26.3-21.9
	c-9.2-23.7-16.9-48-25.7-71.8c-0.8-2.3-4.4-3.7-6.7-5.6c-2,2.5-5.5,4.9-5.6,7.5c-1.8,27.7-2.2,55.4-5.2,82.9
	c-0.5,4.4-11.7,7.8-18,11.7c-1.2-3.3-2.8-6.5-3.5-9.8c-0.6-2.7-0.1-5.5-0.1-8.3C623,167,623,167,623,167z"/>
<g>
	<path class="st0" d="M832.1,168.2c0-30.2,0-56.4,0-82.7c0-10.1,5.2-15.4,16.2-16.2c8.8-0.6,17.6-1.9,26.2-3.7
		c12.5-2.6,27.4,8.6,26.8,20.9c-0.4,7.5-0.2,15.3-2.3,22.4c-2,6.7-5.4,13.7-10.3,18.8c-8.3,8.7,0,14.5,2.5,21.2
		c2.5,6.7,6,13,8.9,19.5c0.2,0.5-0.8,2.1-1.1,2.1c-4.2-0.4-10.3,0.4-12.2-1.8c-6.3-7.4-10.8-16.1-16.5-24.1c-1.2-1.7-4.9-3.6-6.1-3
		c-2.1,1.1-4.1,3.8-4.6,6.2c-0.9,5.2,1.3,12.3-1.7,15.5c-3.8,4.2-11.2,6-17.4,7.5C838,171.5,834.4,169,832.1,168.2z M861.6,119.4
		c0.6,0.8,1.4,2.9,3.1,4c1.2,0.8,3.9,0.9,5,0.1c4.3-3,10.9-6,11.8-9.9c2.2-9.8,2.5-20.2,1.6-30.2c-0.1-1.7-9.9-2.9-15.3-3.6
		c-1.1-0.1-3.8,3-4,4.8C862.8,95.7,862.3,106.9,861.6,119.4z"/>
	<path class="st0" d="M821.8,81.7c0,20.2,0.3,40.5-0.1,60.7c-0.3,19.7-25.4,35.4-44.7,28.4c-19.8-7.2-24.6-14.8-24-34.8
		c0.5-17.9,0.1-35.9-0.5-53.8c-0.5-14.7,4.3-17.5,20.5-12.1c14.3,4.8,6.6,15.9,7.9,23.9c3.4,20.2,4.9,40.6,7.4,61
		c0.1,1.1,2.9,3.1,3.3,2.9c4.6-2.7,12.1-5.3,12.8-8.8c2.2-12.4,2.1-25.1,2.8-37.7c0.7-12.1,0.9-24.3,2.7-36.3c0.4-2.9,6.5-5,10-7.5
		c0.7,2.5,1.7,5,2.1,7.5c0.4,2.2,0.1,4.5,0.1,6.8C822,81.7,821.9,81.7,821.8,81.7z"/>
	<path class="st0" d="M938.3,92.6c-1.6,21,17.4,23,27.7,30.4c11.6,8.3,15.8,27.2,5.6,37.3c-13.7,13.6-42.2,16.6-52.7,4.5
		c-4.6-5.2-6.1-12.9-8.6-19.5c-0.3-0.8,2-3.5,3.4-3.7c1.8-0.3,4.5,0.4,5.9,1.6c2.5,2.2,4.4,5,6.2,7.7c5.3,7.9,18.9,10.7,22.2,3.9
		c1.4-2.9-2.2-9.7-5.5-12.7c-8.3-7.4-20.4-12.2-26-20.8c-5.8-8.9-7.9-21.3-7.4-32c0.5-9.9,9.3-16.3,20.8-18.2
		c5.8-0.9,11.2-3.7,17-4.9c2.7-0.6,6.2-0.1,8.6,1.2c6.5,3.5,14.7,6.4,18.2,11.9c2.9,4.4,0.3,12.1-0.6,18.3c-0.3,2.2-2.6,4.1-4,6.2
		c-1.8-2.5-4.2-4.8-5.4-7.5c-1.5-3.5-1.3-7.9-3.4-11c-2.1-3.1-6.2-5-9.4-7.5C946.8,82.7,942.6,87.6,938.3,92.6z"/>
	<path class="st0" d="M1035.4,156.4c4.1,2.9,8.3,5.7,12.3,8.8c0.1,0-1.7,3.4-2.8,3.5c-15.8,1.5-31.6,3.2-47.4,3.4
		c-3.5,0-9.8-5.6-10.1-9.1c-1.2-11.7-0.3-23.7-0.4-35.5c-0.1-16.4-1.5-32.8-0.1-49c1.1-11.9,12.7-11.3,22.3-11.2
		c11.8,0.1,23.6,0.6,35.5,1.1c1.3,0.1,3.6,2.1,3.5,2.8c-0.5,1.9-1.7,4.7-3.2,5.1c-8.3,2.1-17.3,2.5-24.9,5.8c-3.4,1.5-4.2,8.4-6,13
		c-0.4,0.9-0.1,2.1,0.1,3.1c1.4,5.7,1.1,14.1,4.9,16.4c4.9,3,13.2,1,19.9,1.5c1.5,0.1,2.8,1.9,4.1,2.9c-3.2,2.7-6.1,7.2-9.6,7.7
		c-17,2.3-23.6,9.3-18.5,24.8c1.5,4.6,10.9,7,16.7,10.4C1033,159.9,1034.2,158.1,1035.4,156.4z"/>
</g>
<g>
	<g>
		<path class="st0" d="M356.9,101.1c0,23.2,0.2,46.4-0.4,69.6c-0.1,1.9-5.9,3.8-9.4,5.2c-0.5,0.2-3.3-2.9-3.5-4.6
			c-1-8.7-1.4-17.5-2.3-26.2c-0.1-1-1.8-1.9-3-2.6c-0.5-0.3-1.6,0.2-2.4,0.2c-16.5,0.9-25.1,8.4-26.8,24.6c-0.4,3.5-10,6.2-15.4,9.2
			c-2-4.1-5.7-8.2-5.8-12.3c-0.4-26.5,0-53.1,0.3-79.6c0.1-7.1,18.5-15.8,24.9-11.8c1.3,0.8,1.5,3.7,1.5,5.7
			c0.1,12.4-0.2,24.7,0.2,37.1c0.1,3.3,1.2,9.2,2.8,9.4c5.8,1,13.5,2.3,17.5-0.4c4.3-2.9,6.7-10,7.4-15.6
			c1.4-10.1,0.2-20.5,1.9-30.5c0.5-3.1,6.7-5.4,10.3-8.1c0.8,2.4,2.1,4.8,2.2,7.2C357.1,85.3,356.9,93.2,356.9,101.1z"/>
	</g>
	<g>
		<path class="st0" d="M435.7,171.8c-2.1,1.1-4.7,3-7.6,3.5c-1,0.2-3.8-2.9-4-4.7c-2.3-18.1-8.2-23.9-18.9-19.5
			c-9.6,3.9-15.6,9.2-20.2,18.1c-1.8,3.6-10.7,4-16.5,5.6c-0.3,0.1-2.2-2.3-2-3.4c2.7-19.4,5.7-38.9,8.6-58.3
			c1.5-10.3,2.5-20.7,4.8-30.8c0.5-2.3,5-4.5,8.1-5.4c8.7-2.4,17.6-5,26.5-5.6c3.4-0.2,10,4.3,10.4,7.2c3.8,28.4,6.5,56.9,9.6,85.4
			C434.6,165.8,435,167.7,435.7,171.8z M418,131.3c-1.4-9.9-1.8-17.5-3.9-24.7c-0.7-2.5-5.5-4-8.5-5.7c-0.3-0.2-2.2,1.3-2.4,2.1
			c-2.8,11.3-5.5,22.6-8,34c-0.6,2.5-0.3,5.1-0.4,7.7c2.1-0.8,4.3-1.2,6.1-2.4C406.9,138.6,412.9,134.6,418,131.3z"/>
	</g>
	<g>
		<path class="st0" d="M205.7,122.5c0.9-11.8-0.4-24.2,3.3-35.1c5.9-17.6,33.5-19.9,49.6-14c2.5,0.9,5.2,1.9,7.8,2
			c10,0.5,9.2,6.8,8.2,13.1c-0.9,6-2,12-3.5,17.9c-0.3,1.1-2.4,1.9-3.7,2.8c-1-1.3-2.4-2.5-2.9-3.9c-1.8-6-2.1-12.7-5.1-18
			c-5.6-10.1-10.5-2.1-15.9,1.3c-9.9,6.3-11.2,15.2-10.1,25.2c1.4,12.5,0.5,25.6,4.7,37.1c1.7,4.6,14.2,5.8,22,7.9
			c0.4,0.1,2.4-6.1,4.2-9.1c1.6-2.7,4-5,6-7.4c1.3,2.7,3.6,5.3,3.9,8.1c1.9,19.9-1.7,23-25.8,24.3c-7.8,0.4-17.6,4.1-23.1,1
			c-15.4-8.7-21.8-23-18.7-40.4c0.7-4.1,0.1-8.4,0.1-12.6C206.4,122.5,206.1,122.5,205.7,122.5z"/>
	</g>
	<g>
		<path class="st0" d="M493,161.1c4.1,2.9,8.2,5.8,12.3,8.7c-1,1.2-1.9,3.5-3,3.6c-15.8,1.5-31.6,3.3-47.4,3.4c-3.5,0-10-6-10.1-9.3
			c-0.9-28-1.5-56.2-0.4-84.2c0.5-12,12.6-11.4,22.1-11.3c11.9,0.1,23.8,0.6,35.7,1.1c1.3,0.1,3.6,2.2,3.4,2.8
			c-0.5,1.9-1.7,4.6-3.3,5c-8.3,2.1-16.8,3.4-25.1,5.4c-2,0.5-4.5,2.7-4.9,4.5c-0.9,3.8-1.2,7.9-0.5,11.7c0.9,5.8,1,14.1,4.9,16.5
			c4.8,3,13.1,1,19.9,1.5c1.4,0.1,2.7,1.8,4.1,2.7c-2.9,2.7-5.7,7.6-8.8,7.7c-20.9,1-21.8,9.6-19.3,24.5c0.7,4.4,10.7,7.4,16.4,11
			C490.4,164.7,491.7,162.9,493,161.1z"/>
	</g>
	<g>
		<path class="st0" d="M545.2,92.8c0,19.3-0.8,36.1,0.2,52.9c1,16.6,3.4,17.7,20.6,16.1c2.9-0.3,6.1,2.3,9.1,3.6
			c-2.8,1.9-5.3,4.6-8.4,5.5c-8.5,2.3-17.4,3.4-25.8,5.8c-11.2,3.2-21.8-4.5-21.6-15.8c0.3-20-0.1-40-0.1-60
			c0-7.8-0.6-15.8,1.1-23.2c0.6-2.5,7.6-4.6,12-5c3-0.3,8.3,1.9,9.2,4.1C543.9,82.5,544.4,89,545.2,92.8z"/>
	</g>
	<g>
		<path class="st0" d="M193.4,121.6c0,14.2,0.2,28.4-0.1,42.7c-0.1,7.1-11.6,14.3-18.9,12c-1.2-0.4-2.5-2.3-2.5-3.6
			c-0.1-30.3-0.4-60.6,0.7-90.8c0.1-3.3,8.9-6.7,14.2-9.1c0.6-0.3,6,5.2,6.1,8.1C193.7,94.4,193.3,108,193.4,121.6
			C193.3,121.6,193.3,121.6,193.4,121.6z"/>
	</g>
</g>
</svg>
