<?xml version="1.0" encoding="utf-8"?>
<!-- Generator: Adobe Illustrator 19.0.0, SVG Export Plug-In . SVG Version: 6.00 Build 0)  -->
<svg version="1.1" id="Layer_1" xmlns="http://www.w3.org/2000/svg" xmlns:xlink="http://www.w3.org/1999/xlink" x="0px" y="0px"
	 viewBox="0 0 858 650" style="enable-background:new 0 0 858 650;" xml:space="preserve">
<style type="text/css">
	.st0{fill:#43890B;}
	.st1{fill:#020202;}
	.st2{fill:#FB0404;}
	.st3{fill:#FFFFFF;}
	.st4{font-family:'Stencil';}
	.st5{font-size:182.5225px;}
	.st6{font-size:40px;}
	.st7{letter-spacing:18;}
	.st8{font-family:'VinerHandITC';}
	.st9{font-size:80px;}
</style>
<rect class="st0" width="858" height="650"/>
<g>
	<g>
		<path class="st1" d="M859,147c-12.3,24.4-24.6,48.8-36.8,73.2c-0.5,1-0.7,2.2-1.2,3.7c-5.4-6.3-10.3-12.4-15.7-18.1
			c-27.8-29.3-62.1-44.8-102.3-47.8c-7.3-0.5-14.6-0.5-21.9-0.9c-0.7,0-2.1-2.2-1.9-2.5c19.3-28.5,25.9-62,36.7-93.8
			c6.2-18,11.8-36.3,17.7-54.4c0.6-1.7,0.9-3.5,1.4-5.2c40.2,0,80.3,0,120.5-0.1c3,0,3.6,0.6,3.6,3.6C859,52,859,99.5,859,147z"/>
		<path class="st1" d="M542.8,577.4c2.2-15.7,4-30.4,6.5-45c4-23,2-45.8-1.5-68.5c-1.8-11.4,0.1-21.2,7.1-31.4
			c31.9-45.9,57.4-95.5,82.3-145.4c3.3-6.5,7.1-12.9,9.6-19.7c4.3-11.8,13.3-16.3,24.6-17.2c25.5-2.1,48.6,4.9,69.1,20
			c5,3.6,9.1,8.8,12.6,13.9c4.4,6.3,5.4,13.2,2.7,21.2c-20.5,59.5-40.7,119.2-60.8,178.8c-2,6-6.2,9.5-11.8,11.2
			c-41.4,12.6-73.4,38.9-102.1,70c-5.4,5.9-10.2,12.3-15.3,18.4c-1.3,1.5-2.6,3.1-4.3,4.1c-1.4,0.8-3.4,0.7-5.1,1.1
			c0.3-1.5,0.3-3.2,0.9-4.6c22-49.4,44.1-98.7,66.2-148c0.8-1.7,2.6-3.4,4.3-4.3c9-4.8,14.6-15.3,13.3-25.4
			c-1.2-9.8-9.3-13.7-17.9-8.8c-7.3,4.1-15.7,19-10.5,29c0.6,1.2,0.5,3.3-0.1,4.6c-21.2,48.1-42.6,96.1-63.9,144.1
			c-0.3,0.6-0.5,1.3-0.9,1.8c-1.2,1.4-2.5,2.7-3.7,4.1C543.6,579.8,543,578.2,542.8,577.4z"/>
		<path class="st1" d="M686.6,159.9c54.3,1.1,97.3,20.7,129.6,62.5c2.7,3.4,3.6,6.4,2.4,10.8c-3.6,12.7-6.6,25.7-10.1,38.5
			c-2.5,9.1-6.8,16.8-16.7,20.3c-2.5,0.9-4.9,3.6-6.4,6c-5.9,9.4-15.5,12-25.4,13.9c-0.4,0.1-1.7-1.4-1.6-1.8
			c6.3-20.8-5.3-33.6-20.9-43.3c-20.5-12.8-42.6-21.9-67.6-19.7c-8.6,0.8-15.9,4.3-21.8,10.9c-0.7,0.8-3.9,0.9-4.6,0.1
			c-7.9-9.2-9.1-19.6-4.5-30.7c0.6-1.4,1.7-3,1.3-4.1c-3.2-9.3,2.2-15.4,7.2-22c7.8-10.2,15.6-20.4,22.2-31.3
			C674.3,161.9,679.5,157.8,686.6,159.9z"/>
		<path class="st2" d="M547.7,589c-5.9,1.4-12.3,3.6-18.8,4.3c-16.5,1.6-33.4,4.7-49.7,3.1c-27.3-2.6-53.1-11-75.4-28.3
			c-9.1-7-19.3-13.1-29.9-17.4c-16.1-6.6-30.5-1.7-42.4,10.7c-7.8,8-14.9,16.7-23.3,23.9c-14,12-30.2,18.7-49.1,14.8
			c-19.8-4-36.4-14.7-49.9-29.2c-16.7-17.9-32.1-37.1-47.8-55.9c-2.6-3.1-3.9-2.8-5.4,0.2c-5.1,10.5-10.8,20.8-15.1,31.7
			c-6.8,17.5-17,31.7-34,40.4c-0.7,0.4-1.5,0.8-2.2,1.1c-10.6,5.1-17.1,3.2-21.7-7.5c-8.4-19.7-15-40.2-13.7-61.6
			c1.1-16.9,4.7-33.8,9.1-50.1c1.8-6.8,8.4-12.5,13.4-18.3c1.2-1.3,4.6-0.7,7-0.9c0.3,0,1,1,0.9,1.2c-3.3,5.7-1.2,12.2-3.2,18.3
			c-2.2,6.6-3.3,13.7-4.5,20.6c-1.2,6.8-2.3,13.6-2.8,20.5c-0.5,7-0.5,14-0.2,21c0.5,13.1,3.9,25.4,9.7,37.1c2,3.9,3.4,1.5,5,0
			c10.3-9.8,15.5-22.5,20.4-35.4c5.2-13.6,11.9-26.2,23-36.1c7.7-6.8,17.1-7.9,24-0.3c9.2,10.1,17.9,20.9,25.3,32.4
			c11.3,17.4,22.5,34.4,41.4,44.9c21.6,11.9,41.5,8.6,60.3-5.7c11.7-8.8,22.5-18.7,34.5-27c18.4-12.8,38.2-15.6,58.4-3.9
			c19.8,11.5,38.9,24,59,34.9c20,10.8,41.4,17.5,64.7,16.6C525.8,588.6,536.9,589,547.7,589z"/>
	</g>
</g>
<text transform="matrix(1.3902 0 0 1 42 177.4312)" class="st3 st4 st5">$IGN </text>
<text transform="matrix(1 0 0 1 81 414)" class="st3 st4 st6 st7">dotted LINE</text>
<text transform="matrix(0.9351 -0.3544 0.3544 0.9351 243.392 332.5175)" class="st3 st8 st9">on the</text>
</svg>
